<svg width="42" height="54" viewBox="0 0 42 54" fill="none" xmlns="http://www.w3.org/2000/svg">
<path d="M0.716617 20.4464C1.12438 19.9708 1.51669 19.4806 1.94419 19.0231C3.32743 17.5465 4.71754 16.0766 6.11451 14.6132C8.85209 11.7331 11.6025 8.86594 14.3238 5.97127C15.0346 5.21412 15.8484 4.76344 16.882 4.66043C20.3106 4.31705 23.692 4.41405 26.9498 5.70515C27.1549 5.78252 27.3556 5.87137 27.5507 5.97127C28.0366 6.22881 28.4873 6.17301 28.9431 5.88114C31.4452 4.27871 33.9504 2.68 36.4588 1.08501C36.7326 0.913319 37.1198 0.583676 37.3172 0.848077C37.5147 1.11248 37.0228 1.29533 36.8133 1.48504C34.8303 3.28606 32.8416 5.08107 30.8471 6.87006C28.1533 9.29889 25.4573 11.7248 22.7589 14.148C22.5786 14.3085 22.3614 14.6931 22.1022 14.4682C21.8429 14.2432 22.1957 13.9857 22.3331 13.7814C22.6705 13.2844 23.0422 12.8105 23.4062 12.3315C23.7942 11.8164 23.7298 11.5117 23.1091 11.3117C18.1233 9.69864 12.085 11.3417 10.648 17.8281C9.95176 20.9691 10.0865 24.0887 10.9158 27.1851C11.1004 27.8719 11.2781 27.944 11.8515 27.5139C12.8138 26.792 13.7555 26.0434 14.7118 25.3129C14.9694 25.118 15.299 24.7755 15.5574 25.0399C15.742 25.2279 15.3385 25.5095 15.1548 25.706C12.1268 28.9424 9.09617 32.173 6.06301 35.3979C4.3547 37.2189 2.65126 39.0443 0.952689 40.8739C0.860836 40.9726 0.774133 41.1615 0.609312 41.0379C0.475394 40.9383 0.523467 40.7503 0.603302 40.6335C0.875429 40.2258 1.16129 39.8257 1.45488 39.4317C2.78718 37.6507 4.12178 35.8709 5.45866 34.0922C5.99605 33.3737 5.99347 33.2698 5.54021 32.4817C3.92548 29.6815 3.08249 26.6641 2.9005 23.4355C2.84041 22.3564 2.92196 21.2893 2.9211 20.2172C2.9211 19.9596 3.05072 19.6162 2.7434 19.4737C2.47385 19.3493 2.29186 19.6454 2.08669 19.7768C1.66777 20.0523 1.29607 20.406 0.716617 20.4464Z" fill="#161CCA"/>
<path d="M31.2303 20.8047C32.069 20.8047 32.9086 20.7961 33.7473 20.8047C34.4795 20.815 34.7774 21.1085 34.7877 21.8417C34.8015 22.8083 34.7877 23.7749 34.7877 24.7415C34.7877 24.92 34.75 25.1261 34.9431 25.2342C35.1569 25.3535 35.3191 25.2136 35.4822 25.09C35.9629 24.7277 36.4428 24.3655 36.9321 24.017C37.0763 23.9139 37.2755 23.7946 37.4146 24.0006C37.5408 24.1835 37.3571 24.3002 37.2429 24.4067C34.5877 26.8773 31.8759 29.2869 29.1623 31.6932C26.939 33.6676 24.7302 35.6514 22.5154 37.6319C21.9583 38.1298 21.408 38.6354 20.8423 39.1238C20.0903 39.7737 19.2044 39.948 18.2343 39.8398C16.0659 39.5969 13.9524 39.1693 11.9806 38.1753C11.3539 37.8594 10.7247 37.9409 10.1092 38.3203C8.40259 39.3737 6.6754 40.3995 4.95851 41.4356C4.88039 41.4829 4.80485 41.5344 4.72415 41.5773C4.54045 41.6751 4.30781 41.7721 4.17561 41.5824C4.03396 41.379 4.29665 41.2708 4.41769 41.1661C6.37151 39.4681 8.32933 37.775 10.2912 36.0867C12.3194 34.336 14.3487 32.5868 16.3793 30.839C16.5595 30.6845 16.7432 30.5351 16.9287 30.3866C17.03 30.3059 17.1458 30.2201 17.2634 30.3506C17.3811 30.481 17.2815 30.5875 17.1999 30.6862C16.8291 31.1369 16.4531 31.5833 16.0839 32.0374C15.5732 32.6726 15.6393 32.9173 16.4093 33.1534C19.1374 33.9989 21.8072 33.7852 24.4109 32.6572C25.0705 32.3882 25.7125 32.0777 26.3329 31.7275C27.0669 31.2923 27.4927 30.6759 27.5287 29.8269C27.5605 29.0989 27.5528 28.3675 27.5364 27.6396C27.527 27.2155 27.3433 26.8927 26.8651 26.8567C25.0873 26.7219 23.3275 26.7605 21.6707 27.528C21.1762 27.7572 20.7213 28.0705 20.2328 28.3135C20.0362 28.4113 19.7495 28.6028 19.5881 28.371C19.4267 28.1392 19.6834 27.9134 19.8456 27.7701C20.5908 27.1013 21.3582 26.4567 22.1205 25.8068C23.7713 24.3998 25.4333 23.0066 27.0703 21.5833C27.679 21.0545 28.3245 20.7463 29.1512 20.8012C29.8422 20.8398 30.5376 20.8038 31.2303 20.8047Z" fill="#161CCA"/>
<path d="M40.6951 0.0210046C39.9594 0.894901 39.2889 1.72931 38.5798 2.52938C35.219 6.31769 31.7174 9.98325 28.5009 13.902C27.9592 14.5622 27.3068 15.1296 26.7119 15.7468C26.5659 15.8988 26.3238 16.0627 26.4483 16.2937C26.59 16.5581 26.8775 16.4362 27.0913 16.3726C28.4245 15.9803 29.7997 15.7949 31.162 15.5528C31.3998 15.5108 31.6943 15.358 31.8488 15.6747C32.0033 15.9915 31.732 16.1778 31.5415 16.3666C29.8975 17.9977 28.1369 19.4982 26.3599 20.9834C23.4938 23.3796 20.6475 25.7989 17.821 28.2415C14.5434 31.0812 11.2859 33.9427 8.04843 36.8259C6.2457 38.4218 4.42322 39.9884 2.55868 41.5088C2.46256 41.5926 2.36167 41.6709 2.25651 41.7431C2.02387 41.8899 1.75518 42.2659 1.52855 42.0135C1.34913 41.8144 1.6762 41.4924 1.87192 41.2864C3.73646 39.3377 5.62848 37.414 7.47327 35.449C11.3014 31.3691 15.1163 27.2772 18.918 23.1732C19.076 23.0016 19.3207 22.8385 19.1756 22.5723C19.0193 22.2873 18.7386 22.386 18.4888 22.4444C17.2467 22.7354 16.0053 23.0273 14.7615 23.3115C14.5228 23.3664 14.2344 23.5072 14.0747 23.2102C13.915 22.9131 14.1794 22.7363 14.3614 22.5758C16.3009 20.8589 18.2436 19.1497 20.1894 17.4483C22.9064 15.0738 25.6354 12.714 28.3446 10.3352C31.3286 7.7181 34.3071 5.09126 37.2802 2.45469C38.209 1.63402 39.1001 0.76871 40.1774 0.136895C40.2976 0.0682195 40.4049 -0.047671 40.6951 0.0210046Z" fill="#EBA13E"/>
<path d="M34.8016 30.8903C34.8016 31.6741 34.7759 32.4596 34.8076 33.2425C34.8488 34.252 34.4213 34.9834 33.6058 35.5491C31.2022 37.2257 28.6011 38.4859 25.7407 39.1331C23.9912 39.5289 22.5319 40.3787 21.2219 41.5599C20.7351 41.9986 20.2003 42.3832 19.6827 42.7875C19.5316 42.9051 19.3591 43.106 19.1736 42.8691C19.0122 42.663 19.2363 42.5403 19.3548 42.421C21.1335 40.6411 22.9144 38.8633 24.6977 37.0875C27.5592 34.226 30.419 31.3611 33.277 28.4927C33.4693 28.2996 33.6479 28.0918 33.8273 27.8858C34.0067 27.6798 34.1947 27.4394 34.514 27.5613C34.8334 27.6832 34.8007 27.9905 34.8007 28.2644C34.8019 29.1394 34.8022 30.0147 34.8016 30.8903Z" fill="#161CCA"/>
<path d="M5.92277 50.0302C6.41466 50.0302 6.90741 50.0302 7.39929 50.0302C7.50402 50.0302 7.63623 50.0353 7.64309 50.183C7.64824 50.2911 7.54781 50.3392 7.45939 50.3546C6.97351 50.4474 6.8456 50.8139 6.77263 51.2294C6.6576 51.8732 6.46273 52.505 6.44728 53.166C6.45474 53.276 6.42139 53.3849 6.3536 53.4719C6.28582 53.5588 6.18836 53.6177 6.07987 53.6373C4.9802 53.9275 3.87281 54.1344 2.73193 53.9C0.657933 53.4708 -0.147288 51.8861 0.0218258 50.0164C0.275067 47.2179 2.31387 45.428 5.11669 45.416C5.79315 45.416 6.46187 45.4392 7.12459 45.5989C7.45509 45.6787 7.58386 45.8375 7.51604 46.1792C7.43449 46.5895 7.38212 47.0059 7.31517 47.4188C7.298 47.5278 7.27396 47.6583 7.14348 47.6617C7.01299 47.6651 6.9881 47.5304 6.97179 47.4231C6.85161 46.6642 6.61554 45.9826 5.73649 45.8229C4.76559 45.6469 3.90457 45.9199 3.25902 46.6539C1.81168 48.3021 1.51466 50.2121 2.1542 52.2724C2.38512 53.0141 2.90276 53.5171 3.7243 53.6099C4.28143 53.6725 4.65743 53.4519 4.79306 52.9068C4.94672 52.2896 5.05059 51.6586 5.14759 51.0302C5.22314 50.5624 4.90208 50.4388 4.52608 50.3795C4.38959 50.3572 4.1724 50.3838 4.17326 50.2079C4.17326 49.9709 4.41105 50.0362 4.55784 50.0362C5.01282 50.025 5.46865 50.0319 5.92363 50.0319L5.92277 50.0302Z" fill="#161CCA"/>
<path d="M19.3852 52.3937C18.8788 53.0067 18.4058 53.5097 17.7636 53.8042C17.0486 54.1364 16.4571 53.8831 16.3257 53.1174C16.0468 51.4752 16.6485 49.1866 18.744 48.4818C19.1114 48.3573 19.4754 48.2492 19.8651 48.2792C20.1827 48.3041 20.3338 48.1522 20.3879 47.856C20.4892 47.2997 20.5896 46.74 20.7064 46.1906C20.7665 45.9065 20.6995 45.7288 20.3939 45.6755C20.2712 45.6532 20.0969 45.6318 20.0943 45.4884C20.09 45.2978 20.2943 45.3047 20.4257 45.2747C20.8695 45.1725 21.3202 45.0987 21.7614 44.9879C22.3735 44.8343 22.461 44.9021 22.3306 45.5133C21.9872 47.1177 21.6318 48.7205 21.2918 50.3206C21.1442 51.0159 21.0171 51.7156 20.8918 52.4152C20.8678 52.5448 20.7605 52.7156 20.9382 52.8092C21.0738 52.8805 21.1648 52.738 21.2704 52.6744C21.3983 52.598 21.5279 52.374 21.6747 52.55C21.8009 52.6993 21.6112 52.8496 21.5099 52.9646C21.1429 53.4002 20.6616 53.7246 20.1201 53.9012C19.5999 54.0617 19.3561 53.8866 19.3415 53.3389C19.3346 53.0625 19.3698 52.7912 19.3852 52.3937ZM19.3535 48.7419C18.9105 48.7419 18.5877 49.0243 18.3148 49.6527C17.9714 50.4451 17.8306 51.2838 17.7611 52.1422C17.737 52.4255 17.7319 52.78 18.0358 52.9148C18.3225 53.0384 18.5345 52.768 18.7268 52.5817C18.878 52.4248 19.0213 52.2603 19.156 52.089C19.7793 51.355 19.8368 50.4262 20.0248 49.5428C20.1424 48.9711 19.9424 48.7385 19.3535 48.7419Z" fill="#161CCA"/>
<path d="M4.74609 13.465C4.76775 13.2052 4.84598 12.9532 4.9753 12.7268C6.42435 10.0965 8.40908 8.00532 11.0402 6.51506C13.0292 5.38706 14.7341 3.86161 16.5291 2.45462C17.1025 2.00479 17.6854 1.56699 18.27 1.13175C18.4185 1.02101 18.5859 0.788377 18.7851 0.996979C18.9954 1.22103 18.7293 1.35667 18.5988 1.47771C17.0914 2.87869 15.5882 4.28482 14.0602 5.66434C11.8025 7.70229 9.52505 9.71877 7.25619 11.7456C6.55054 12.3765 5.84834 13.0126 5.14355 13.6453C5.06372 13.7174 4.97873 13.8324 4.86885 13.7861C4.72892 13.7303 4.75382 13.5749 4.74609 13.465Z" fill="#161CCA"/>
<path d="M25.62 53.7215H21.9141C21.9862 53.6116 22.0085 53.5387 22.0411 53.5344C22.885 53.4151 22.9854 52.7618 23.109 52.0991C23.4335 50.3444 23.7777 48.594 24.1203 46.8428C24.2061 46.3861 24.1203 46.0487 23.6121 45.9277C23.4859 45.8977 23.2687 45.9037 23.3193 45.6925C23.3605 45.5208 23.5554 45.5509 23.6953 45.5509C24.9344 45.5469 26.1731 45.5469 27.4115 45.5509C27.8305 45.5509 28.2494 45.5509 28.6692 45.5509C28.9971 45.5509 29.1353 45.6925 29.0615 46.0307C28.9756 46.4222 28.9155 46.8188 28.8357 47.2111C28.8142 47.3141 28.7756 47.4394 28.6331 47.4205C28.5327 47.4068 28.5018 47.3047 28.4786 47.2162C28.3859 46.8557 28.4614 46.4119 28.0743 46.1861C27.6871 45.9603 27.227 46.0093 26.7909 46.0093C25.8878 46.0093 25.8861 46.0093 25.7092 46.9269C25.5822 47.5888 25.4577 48.2507 25.3264 48.9117C25.2766 49.1692 25.3144 49.3563 25.6251 49.3598C26.0612 49.3649 26.4973 49.3898 26.9334 49.3194C27.3566 49.2516 27.6073 48.9932 27.7764 48.6224C27.8262 48.5116 27.876 48.3494 28.0339 48.382C28.2116 48.4198 28.1524 48.5897 28.1301 48.7039C28.0056 49.328 27.8725 49.9512 27.7352 50.5736C27.7086 50.6921 27.6802 50.8612 27.518 50.8414C27.3557 50.8217 27.3566 50.6569 27.354 50.5333C27.3403 49.9839 27.0192 49.8388 26.5256 49.8268C25.1521 49.7916 25.1478 49.7795 24.8894 51.1419C24.8036 51.6072 24.7177 52.0725 24.6405 52.5394C24.5606 53.0373 24.6594 53.4176 25.2706 53.4442C25.389 53.4511 25.5204 53.4846 25.62 53.7215Z" fill="#161CCA"/>
<path d="M29.8734 14.7967C29.5944 14.8027 29.4304 14.7718 29.354 14.5966C29.2553 14.37 29.4064 14.2189 29.5403 14.067C30.6279 12.8394 31.7104 11.6075 32.8024 10.3843C34.2096 8.80644 35.6206 7.23262 37.0354 5.66282C37.0714 5.62247 37.0997 5.57697 37.1384 5.53577C37.2508 5.42417 37.3607 5.23875 37.541 5.39756C37.7213 5.55637 37.5599 5.69973 37.468 5.82678C36.904 6.6114 36.3426 7.39687 35.7666 8.17291C35.1803 8.96353 34.5879 9.74987 33.9819 10.5259C33.484 11.162 33.3938 11.8187 33.7243 12.5673C34.2583 13.7691 34.1536 13.9562 32.8805 14.2138C31.8469 14.4215 30.8082 14.6155 29.8734 14.7967Z" fill="#161CCA"/>
<path d="M39.5491 50.0491C39.9663 49.5444 40.2616 49.0585 40.6754 48.6756C40.8634 48.5039 41.0548 48.3262 41.3226 48.2945C41.6059 48.2601 41.8308 48.3631 41.9416 48.6378C42.0952 49.0156 41.9278 49.3117 41.66 49.5632C41.4419 49.7684 41.2376 49.7255 41.0514 49.5032C40.9655 49.4053 40.8797 49.3229 40.7234 49.3658C40.3277 49.4748 39.6641 50.5084 39.7714 50.8956C39.9131 51.4046 40.0659 51.9111 40.2436 52.4081C40.4367 52.9472 40.6187 52.973 41.0702 52.5893C41.1896 52.488 41.296 52.197 41.4892 52.397C41.636 52.5489 41.4299 52.7309 41.3175 52.8622C41.0093 53.2211 40.7011 53.5859 40.2745 53.8143C39.7414 54.0993 39.3611 53.986 39.1241 53.4297C38.9699 53.0401 38.8364 52.6427 38.7241 52.239C38.6383 51.9609 38.5215 51.9669 38.3644 52.1824C38.0966 52.5498 37.8339 52.9223 37.5566 53.2837C37.4396 53.4453 37.3006 53.5898 37.1437 53.713C36.8218 53.949 36.4716 54.1345 36.1325 53.7379C35.887 53.4503 35.9659 52.9575 36.2861 52.6494C36.4793 52.4639 36.681 52.3867 36.9111 52.5875C37.0072 52.6734 37.1017 52.7592 37.245 52.7438C37.5953 52.7129 38.4941 51.5085 38.4039 51.1531C38.2923 50.7127 38.1524 50.2783 38.0099 49.8457C37.8785 49.4482 37.6665 49.286 37.3094 49.6474C37.2193 49.7332 37.1145 49.9384 36.9592 49.783C36.8261 49.6491 36.9875 49.5143 37.0682 49.4053C37.3532 49.0241 37.6691 48.6696 38.0846 48.4258C38.5464 48.1554 38.8924 48.2541 39.1018 48.7443C39.2709 49.1383 39.3851 49.5607 39.5491 50.0491Z" fill="#161CCA"/>
<path d="M28.813 53.038C29.0405 51.8859 29.3006 50.5631 29.5624 49.2411C29.7467 48.3117 29.9324 47.3825 30.1196 46.4537C30.1908 46.0992 30.2603 45.7515 29.771 45.6313C29.6903 45.6107 29.5899 45.5644 29.6114 45.4459C29.6328 45.3274 29.7307 45.3171 29.8174 45.2965C30.3479 45.1686 30.8767 45.0304 31.4115 44.9222C31.8777 44.8287 31.8184 45.1394 31.7609 45.427C31.4793 46.8383 31.1969 48.2496 30.9136 49.6609L30.3779 52.3418C30.3505 52.4817 30.2621 52.65 30.3891 52.7555C30.5608 52.8963 30.681 52.7092 30.8183 52.6311C30.9222 52.571 31.0295 52.4113 31.1445 52.5298C31.2896 52.6791 31.1102 52.7925 31.0209 52.8912C30.6518 53.2998 30.2483 53.6741 29.7238 53.8689C29.1358 54.0853 28.7976 53.838 28.813 53.038Z" fill="#161CCA"/>
<path d="M34.9611 48.2705C35.4839 48.2705 35.8616 48.3821 36.0342 48.8165C36.2067 49.2508 36.1466 49.6826 35.817 50.038C35.3268 50.566 34.6684 50.7952 34.0099 51.0167C33.3515 51.2381 33.2133 51.5386 33.4245 52.3146C33.5781 52.8795 33.9395 53.0872 34.5533 52.9628C34.9225 52.8872 35.2195 52.6786 35.4976 52.4365C35.5766 52.367 35.6642 52.2597 35.7766 52.3507C35.8891 52.4417 35.8152 52.5567 35.7449 52.6366C35.0993 53.3714 34.3396 53.9242 33.3249 53.9723C32.6862 54.0058 32.16 53.5645 31.9694 52.9087C31.4449 51.1059 32.706 48.8448 34.5147 48.3589C34.6898 48.3074 34.8718 48.2868 34.9611 48.2705ZM34.8667 49.3676C34.8727 49.1307 34.7851 48.9384 34.5722 48.8285C34.3593 48.7186 34.1791 48.8508 34.0443 48.995C33.64 49.4243 33.5292 49.9762 33.4691 50.5402C33.4477 50.7291 33.555 50.7334 33.7061 50.7119C34.3061 50.6055 34.8675 49.9625 34.8667 49.3676Z" fill="#161CCA"/>
<path d="M10.5118 49.5051C10.8672 49.197 11.1256 48.8476 11.4561 48.5608C11.7136 48.3385 12.0003 48.178 12.3497 48.3488C12.6072 48.4759 12.7085 48.7145 12.6785 48.9858C12.6628 49.1775 12.5971 49.3617 12.4881 49.5201C12.379 49.6786 12.2304 49.8057 12.057 49.8889C11.8673 49.9841 11.7033 49.8588 11.5642 49.7386C11.2604 49.4742 11.0492 49.5944 10.8526 49.8811C10.3847 50.5541 10.1761 51.325 9.98384 52.1036C9.92375 52.3509 9.88083 52.6024 9.82417 52.8505C9.6336 53.6961 9.4104 53.8652 8.5305 53.8892C8.12703 53.9004 8.24893 53.6394 8.28928 53.4471C8.47556 52.5569 8.67901 51.671 8.87216 50.7859C8.93826 50.4838 9.00007 50.185 9.04385 49.876C9.06359 49.7395 9.11081 49.5661 8.94599 49.4845C8.81207 49.4176 8.71163 49.5378 8.60261 49.603C8.49359 49.6682 8.39229 49.8142 8.28155 49.6562C8.19055 49.5283 8.31417 49.4193 8.40001 49.3283C8.73738 48.9695 9.08076 48.6201 9.5426 48.4149C10.2182 48.1153 10.5015 48.2904 10.5058 49.0158C10.5126 49.1806 10.5118 49.3429 10.5118 49.5051Z" fill="#161CCA"/>
<path d="M15.4379 49.1435C15.3461 49.8929 15.0885 50.7668 14.8842 51.6527C14.831 51.8836 14.7692 52.112 14.7125 52.3394C14.6808 52.4794 14.6104 52.645 14.7349 52.7524C14.8799 52.8777 14.9967 52.7232 15.1152 52.6502C15.2164 52.5892 15.3135 52.421 15.4362 52.5377C15.5864 52.6811 15.4208 52.8047 15.3323 52.9043C15.007 53.2777 14.6456 53.6099 14.1837 53.81C13.9185 53.925 13.6309 54.0623 13.3553 53.8563C13.0643 53.6391 13.0815 53.3146 13.1493 53.0065C13.321 52.2244 13.5116 51.4467 13.6936 50.6663C13.7631 50.365 13.8318 50.0654 13.8944 49.7607C13.9193 49.6414 14.0112 49.4911 13.8944 49.4018C13.7442 49.2877 13.6369 49.4645 13.5159 49.522C13.3948 49.5795 13.2746 49.8405 13.1218 49.6431C12.9982 49.48 13.2077 49.3512 13.3159 49.2439C13.6747 48.8803 14.0998 48.5889 14.5683 48.3854C15.195 48.1236 15.4748 48.3228 15.4379 49.1435Z" fill="#161CCA"/>
<path d="M15.8544 46.3688C15.8484 46.8838 15.4956 47.2753 15.0818 47.2384C14.668 47.2015 14.474 46.9319 14.4766 46.5327C14.4766 46.0803 14.856 45.6803 15.2561 45.7052C15.6921 45.7327 15.8278 46.0348 15.8544 46.3688Z" fill="#161CCA"/>
</svg>
